<?xml version="1.0" standalone="no"?>
<!DOCTYPE svg PUBLIC "-//W3C//DTD SVG 20010904//EN"
 "http://www.w3.org/TR/2001/REC-SVG-20010904/DTD/svg10.dtd">
<svg version="1.0" xmlns="http://www.w3.org/2000/svg"
 width="168.000000pt" height="169.000000pt" viewBox="0 0 168.000000 169.000000"
 preserveAspectRatio="xMidYMid meet">

<g transform="translate(0.000000,169.000000) scale(0.100000,-0.100000)"
fill="#000000" stroke="none">
<path d="M727 1660 c-272 -49 -489 -209 -605 -443 -72 -145 -86 -204 -86 -367
0 -156 22 -256 79 -371 110 -217 348 -396 584 -439 79 -14 238 -15 306 -1 86
17 210 67 283 114 85 55 203 171 257 252 48 72 99 205 116 299 16 96 6 282
-20 371 -46 156 -147 310 -264 405 -78 64 -218 133 -322 160 -90 23 -256 33
-328 20z m462 -386 c99 -29 181 -140 181 -244 0 -53 -30 -127 -67 -165 -46
-47 -100 -71 -182 -80 -65 -7 -101 -29 -101 -60 0 -9 9 -34 21 -56 81 -160
-42 -351 -216 -337 -148 12 -250 165 -200 298 28 74 30 105 7 128 -17 17 -29
20 -70 15 -76 -8 -148 17 -199 69 -52 54 -73 102 -73 171 0 99 37 167 118 214
39 23 59 28 117 28 78 0 127 -19 174 -66 65 -65 86 -175 53 -274 -21 -61 -19
-77 14 -109 11 -11 35 -16 80 -16 59 0 65 2 76 25 10 22 7 34 -20 86 -27 51
-32 73 -32 128 1 85 23 134 88 192 72 65 140 80 231 53z"/>
</g>
</svg>
