<?xml version="1.0" standalone="no"?>
<!DOCTYPE svg PUBLIC "-//W3C//DTD SVG 20010904//EN"
 "http://www.w3.org/TR/2001/REC-SVG-20010904/DTD/svg10.dtd">
<svg version="1.0" xmlns="http://www.w3.org/2000/svg"
 width="167.000000pt" height="169.000000pt" viewBox="0 0 167.000000 169.000000"
 preserveAspectRatio="xMidYMid meet">

<g transform="translate(0.000000,169.000000) scale(0.100000,-0.100000)"
fill="#000000" stroke="none">
<path d="M722 1660 c-258 -36 -494 -208 -611 -445 -69 -138 -84 -203 -85 -355
-2 -248 68 -423 236 -590 161 -161 357 -242 584 -241 254 0 472 106 637 309
70 86 109 157 143 262 26 78 28 98 28 240 1 175 -9 226 -75 366 -77 163 -200
288 -364 369 -154 75 -336 107 -493 85z m456 -385 c72 -22 145 -95 168 -170
15 -46 16 -64 6 -115 -22 -119 -104 -191 -237 -205 -32 -4 -67 -11 -77 -16
-28 -15 -32 -52 -10 -96 81 -158 -27 -343 -201 -343 -147 0 -263 164 -212 300
28 74 30 105 6 129 -17 17 -28 20 -65 15 -69 -10 -138 12 -192 59 -58 51 -83
105 -84 178 0 101 37 169 118 216 39 23 59 28 117 28 79 0 126 -18 176 -69 65
-64 86 -182 50 -275 -21 -56 -19 -72 15 -105 11 -11 35 -16 80 -16 59 0 65 2
76 25 10 22 7 34 -20 86 -50 97 -43 208 18 285 38 47 83 78 135 91 57 15 75
15 133 -2z"/>
</g>
</svg>
