<?xml version="1.0" standalone="no"?>
<!DOCTYPE svg PUBLIC "-//W3C//DTD SVG 20010904//EN"
 "http://www.w3.org/TR/2001/REC-SVG-20010904/DTD/svg10.dtd">
<svg version="1.0" xmlns="http://www.w3.org/2000/svg"
 width="112.000000pt" height="115.000000pt" viewBox="0 0 112.000000 115.000000"
 preserveAspectRatio="xMidYMid meet">

<g transform="translate(0.000000,115.000000) scale(0.100000,-0.100000)"
fill="#000000" stroke="none">
<path d="M289 1110 c-57 -10 -126 -57 -174 -118 -60 -76 -80 -137 -79 -237 1
-99 23 -160 89 -243 35 -46 46 -67 43 -89 -3 -27 -5 -28 -72 -33 l-69 -5 2
-105 c1 -57 4 -106 5 -108 2 -1 33 -5 70 -9 l66 -6 0 -63 0 -64 115 0 115 0 0
49 c0 55 7 81 22 81 6 0 44 -33 85 -72 l74 -73 47 50 c345 368 459 510 483
599 6 23 9 77 7 121 -8 139 -78 248 -197 303 -101 48 -216 33 -323 -42 -18
-13 -25 -11 -64 14 -67 42 -170 63 -245 50z m143 -40 c20 -6 60 -26 88 -45 60
-40 71 -42 94 -16 24 26 108 61 164 68 95 11 194 -40 257 -131 43 -62 56 -132
44 -241 -10 -96 -32 -126 -358 -485 -57 -63 -112 -124 -122 -135 -19 -19 -19
-19 -59 20 -46 45 -48 51 -20 60 18 6 20 15 20 109 l0 103 -70 7 -70 7 0 38
c0 21 -3 53 -6 70 l-6 31 -107 0 c-65 0 -116 5 -131 13 -61 31 -101 229 -65
325 60 158 203 242 347 202z m-74 -643 l3 -66 72 -3 72 -3 1 -65 c0 -36 -2
-71 -4 -77 -3 -8 -24 -13 -57 -13 -83 0 -85 -2 -85 -82 l0 -70 -31 6 c-17 3
-53 6 -80 6 -27 0 -48 3 -48 8 1 4 1 35 0 70 l-1 62 -68 0 -67 0 0 80 0 80 67
0 68 0 0 63 c0 35 2 66 4 68 3 2 37 4 78 3 l73 0 3 -67z"/>
<path d="M747 963 c-9 -38 -23 -111 -33 -163 -23 -131 -27 -135 -54 -54 -13
38 -32 87 -43 109 l-19 39 -18 -22 c-10 -12 -28 -51 -39 -85 -28 -83 -46 -107
-79 -107 -15 0 -34 -5 -42 -10 -24 -16 7 -31 55 -28 39 3 41 5 75 76 19 39 39
71 45 69 5 -2 26 -45 46 -96 44 -110 55 -124 67 -90 9 22 16 58 53 247 6 29
14 50 18 48 4 -3 13 -36 20 -73 7 -38 16 -75 21 -83 11 -18 179 -27 207 -11
16 9 16 11 -7 12 -14 1 -29 2 -35 4 -5 1 -36 3 -68 3 -68 2 -64 -4 -102 165
-31 139 -46 149 -68 50z"/>
</g>
</svg>
